<?xml version="1.0" encoding="UTF-8" standalone="no"?>
<!-- Created with Inkscape (http://www.inkscape.org/) -->

<svg
   xmlns:dc="http://purl.org/dc/elements/1.1/"
   xmlns:cc="http://creativecommons.org/ns#"
   xmlns:rdf="http://www.w3.org/1999/02/22-rdf-syntax-ns#"
   xmlns:svg="http://www.w3.org/2000/svg"
   xmlns="http://www.w3.org/2000/svg"
   xmlns:sodipodi="http://sodipodi.sourceforge.net/DTD/sodipodi-0.dtd"
   xmlns:inkscape="http://www.inkscape.org/namespaces/inkscape"
   width="335.45279mm"
   height="195.94571mm"
   viewBox="0 0 335.45279 195.94571"
   version="1.1"
   id="svg8"
   inkscape:version="0.92.5 (2060ec1f9f, 2020-04-08)"
   sodipodi:docname="ben.svg"
   inkscape:export-filename="/home/roland/Documents/Drawings/ben.png"
   inkscape:export-xdpi="96"
   inkscape:export-ydpi="96">
  <defs
     id="defs2" />
  <sodipodi:namedview
     id="base"
     pagecolor="#ffffff"
     bordercolor="#666666"
     borderopacity="1.0"
     inkscape:pageopacity="0.0"
     inkscape:pageshadow="2"
     inkscape:zoom="0.7"
     inkscape:cx="1006.5949"
     inkscape:cy="336.12936"
     inkscape:document-units="mm"
     inkscape:current-layer="layer7"
     showgrid="false"
     inkscape:window-width="2543"
     inkscape:window-height="1538"
     inkscape:window-x="1200"
     inkscape:window-y="80"
     inkscape:window-maximized="0" />
  <metadata
     id="metadata5">
    <rdf:RDF>
      <cc:Work
         rdf:about="">
        <dc:format>image/svg+xml</dc:format>
        <dc:type
           rdf:resource="http://purl.org/dc/dcmitype/StillImage" />
        <dc:title></dc:title>
      </cc:Work>
    </rdf:RDF>
  </metadata>
  <g
     inkscape:groupmode="layer"
     id="layer7"
     inkscape:label="Mast"
     style="display:inline;opacity:1"
     transform="translate(65.437718,-68.831338)">
    <path
       style="opacity:1;fill:#ffffff;fill-opacity:1;stroke:#000000;stroke-width:1.06500006;stroke-miterlimit:4;stroke-dasharray:none;stroke-opacity:1"
       d="m -15.725007,116.80602 38.737677,2.35667 -3.074427,4.44073 -31.316524,0.47247 z"
       id="rect902"
       inkscape:connector-curvature="0"
       sodipodi:nodetypes="ccccc" />
    <path
       style="opacity:1;fill:#4e545a;fill-opacity:1;stroke:#000000;stroke-width:1.06500006;stroke-miterlimit:4;stroke-dasharray:none;stroke-opacity:1"
       d="m -16.102989,123.60889 h 32.60688 l -21.1811101,16.37026 -4.2997146,0.16073 -1.5487693,-3.47815 5.1842522,-0.0303 11.5554673,-9.81529 -22.3170055,0.13363 z"
       id="rect886"
       inkscape:connector-curvature="0"
       sodipodi:nodetypes="ccccccccc" />
    <rect
       style="opacity:1;fill:#f4f4f4;fill-opacity:1;stroke:#000000;stroke-width:1.06500006;stroke-miterlimit:4;stroke-dasharray:none;stroke-opacity:1"
       id="rect889"
       width="2.7403271"
       height="22.962053"
       x="-37.892113"
       y="74.088539" />
    <rect
       style="opacity:1;fill:#f4f4f4;fill-opacity:1;stroke:#000000;stroke-width:1.06500006;stroke-miterlimit:4;stroke-dasharray:none;stroke-opacity:1"
       id="rect891"
       width="2.5513394"
       height="27.970238"
       x="-47.719494"
       y="69.363838" />
    <rect
       style="opacity:1;fill:#f4f4f4;fill-opacity:1;stroke:#000000;stroke-width:1.06500006;stroke-miterlimit:4;stroke-dasharray:none;stroke-opacity:1"
       id="rect893"
       width="2.3623512"
       height="27.403273"
       x="-15.780505"
       y="69.552826" />
    <rect
       style="opacity:1;fill:#f4f4f4;fill-opacity:1;stroke:#000000;stroke-width:1.06500006;stroke-miterlimit:4;stroke-dasharray:none;stroke-opacity:1"
       id="rect895"
       width="0.75595242"
       height="22.584076"
       x="-31.277529"
       y="75.222466" />
    <path
       style="opacity:1;fill:#ffffff;fill-opacity:1;stroke:#000000;stroke-width:1.06500006;stroke-miterlimit:4;stroke-dasharray:none;stroke-opacity:1"
       d="m -12.09524,101.96428 30.521575,-0.37798 1.611491,2.01409 2.974844,15.5623 c -7.477591,-0.0337 -38.737677,-2.35667 -38.737677,-2.35667 l 2.254992,-12.9897 z"
       id="rect899"
       inkscape:connector-curvature="0"
       sodipodi:nodetypes="ccccccc" />
    <path
       style="opacity:1;fill:#4e545a;fill-opacity:1;stroke:#000000;stroke-width:1.06500006;stroke-miterlimit:4;stroke-dasharray:none;stroke-opacity:1"
       d="m -49.703868,96.672612 47.7065411,-0.02372 0.1074468,2.197085 -20.2137699,0.847906 13.1267163,40.445997 -5.2714573,-0.0595 -13.910834,-40.667427 -18.233428,-0.182587 z"
       id="rect883"
       inkscape:connector-curvature="0"
       sodipodi:nodetypes="ccccccccc" />
    <rect
       style="opacity:1;fill:#40c6c5;fill-opacity:1;stroke:#000000;stroke-width:1.20109415;stroke-miterlimit:4;stroke-dasharray:none;stroke-opacity:1"
       id="rect897"
       width="7.7485118"
       height="5.6488128"
       x="-11.077748"
       y="89.929008" />
  </g>
  <g
     inkscape:groupmode="layer"
     id="layer8"
     inkscape:label="Details"
     style="opacity:1"
     transform="translate(65.437718,-68.831338)">
    <path
       style="opacity:1;fill:#ffffff;fill-opacity:1;stroke:#000000;stroke-width:1.06500006;stroke-miterlimit:4;stroke-dasharray:none;stroke-opacity:1"
       d="m 31.270533,131.22607 c 2e-6,1.55354 0.211929,4.89436 0.201343,8.5265 -0.0057,1.96471 -4.109926,1.25676 -5.404993,1.25676 -1.406391,0 -5.439783,0.58651 -5.53522,-1.24579 -0.154502,-2.96626 -0.0014,-5.35656 0.04809,-8.53747 0.04305,-2.76733 2.393214,-5.0113 5.34539,-5.0113 2.952176,0 5.345387,2.24363 5.34539,5.0113 z"
       id="path906"
       inkscape:connector-curvature="0"
       sodipodi:nodetypes="sssssss" />
    <path
       style="opacity:1;fill:#cccccc;fill-opacity:1;stroke:#000000;stroke-width:1.06500006;stroke-miterlimit:4;stroke-dasharray:none;stroke-opacity:1"
       d="m 59.106026,142.05339 c 0.174052,2.02082 2.535442,0.30723 2.474537,3.62259 0.09346,2.85036 -3.362846,2.21241 -3.844701,2.21241 -0.648266,0 -3.041767,0.49155 -3.227754,-2.11605 -0.210854,-2.95626 2.235568,-1.72731 2.282814,-3.62446 0.03735,-1.49993 -0.332268,-2.05525 1.181175,-2.05525 1.513444,0 1.133931,0.46036 1.133929,1.96076 z"
       id="path909"
       inkscape:connector-curvature="0"
       sodipodi:nodetypes="ccssssc" />
    <path
       style="display:inline;opacity:1;fill:#cccccc;fill-opacity:1;stroke:#000000;stroke-width:1.06500006;stroke-miterlimit:4;stroke-dasharray:none;stroke-opacity:1"
       d="m 103.90103,151.23789 14.03164,-0.0334 0.025,1.20436 -4.72527,2.27537 0.0231,1.53157 -4.42855,-0.0437 -0.0196,-1.58168 -4.87287,-1.9159 z"
       id="rect912"
       inkscape:connector-curvature="0"
       sodipodi:nodetypes="ccccccccc" />
    <path
       style="opacity:1;fill:#fdffff;fill-opacity:1;stroke:#000000;stroke-width:1.06500006;stroke-miterlimit:4;stroke-dasharray:none;stroke-opacity:1"
       d="m 157.52158,172.26786 2.34001,-0.80171 52.08856,0.14026 1.79538,4.53571 h -56.31844 z"
       id="rect916"
       inkscape:connector-curvature="0"
       sodipodi:nodetypes="cccccc" />
    <path
       style="opacity:1;fill:#817e7b;fill-opacity:1;stroke:#000000;stroke-width:1.06500006;stroke-miterlimit:4;stroke-dasharray:none;stroke-opacity:1"
       d="m 234.86309,179.03392 0.93545,1.03567 0.10023,2.77292 -6.17778,-0.57971 -0.25313,-2.35885 -2.72308,-0.33549 -0.006,-0.6903 5.50276,0.0784 -1.02088,-1.63973 1.93986,1.69603 z"
       id="rect919"
       inkscape:connector-curvature="0"
       sodipodi:nodetypes="ccccccccccc" />
    <path
       style="opacity:1;fill:#817e7b;fill-opacity:1;stroke:#000000;stroke-width:1.06500006;stroke-miterlimit:4;stroke-dasharray:none;stroke-opacity:1"
       d="m 261.18913,209.43581 0.96885,9.12057 -1.60362,2.43884 -8.21853,0.23386 z"
       id="rect922"
       inkscape:connector-curvature="0"
       sodipodi:nodetypes="ccccc" />
  </g>
  <g
     inkscape:groupmode="layer"
     id="layer3"
     inkscape:label="Hatch"
     style="display:inline;opacity:1"
     transform="translate(65.437718,-68.831338)">
    <path
       style="opacity:1;fill:#fff555;fill-opacity:1;stroke:#000000;stroke-width:1.06500006;stroke-miterlimit:4;stroke-dasharray:none;stroke-opacity:1"
       d="m 52.066223,146.75446 h 11.055803 l 1.228423,7.843 -12.651722,-6.83929 z"
       id="rect843"
       inkscape:connector-curvature="0"
       sodipodi:nodetypes="ccccc" />
    <path
       style="opacity:1;fill:#fff555;fill-opacity:1;stroke:#000000;stroke-width:1.06500006;stroke-miterlimit:4;stroke-dasharray:none;stroke-opacity:1"
       d="m -22.049736,139.71188 h 55.191154 l 32.067672,12.41782 66.22673,5.22665 21.52405,17.95034 -175.482076,10.96131 z"
       id="rect837"
       inkscape:connector-curvature="0"
       sodipodi:nodetypes="ccccccc" />
    <path
       style="opacity:1;fill:#fff555;fill-opacity:1;stroke:#000000;stroke-width:1.06500006;stroke-miterlimit:4;stroke-dasharray:none;stroke-opacity:1"
       d="m -28.998743,185.68224 104.942434,-16.24809 0.361764,9.16544 -104.051576,14.30367 z"
       id="rect834"
       inkscape:connector-curvature="0"
       sodipodi:nodetypes="ccccc" />
    <path
       style="opacity:1;fill:#fff555;fill-opacity:1;stroke:#000000;stroke-width:1.06500006;stroke-miterlimit:4;stroke-dasharray:none;stroke-opacity:1"
       d="m -28.442707,192.3006 119.062503,-17.4814 125.538384,0.23484 6.3992,4.74884 -0.0617,3.92427 -249.237464,16.41645 z"
       id="rect831"
       inkscape:connector-curvature="0"
       sodipodi:nodetypes="ccccccc" />
    <path
       style="opacity:1;fill:#fff555;fill-opacity:1;stroke:#000000;stroke-width:1.06500006;stroke-miterlimit:4;stroke-dasharray:none;stroke-opacity:1"
       d="m 239.06993,177.46503 h 14.55208 l 2.83482,7.46503 -19.08779,-1.70089 z"
       id="rect840"
       inkscape:connector-curvature="0"
       sodipodi:nodetypes="ccccc" />
  </g>
  <g
     inkscape:groupmode="layer"
     id="layer9"
     inkscape:label="Access panel"
     transform="translate(65.437718,-68.831338)">
    <rect
       style="opacity:1;fill:#2e2e2e;fill-opacity:1;stroke:#000000;stroke-width:1.75584769;stroke-miterlimit:4;stroke-dasharray:none;stroke-opacity:1"
       id="rect926"
       width="37.484745"
       height="26.33445"
       x="-17.419455"
       y="149.84021" />
  </g>
  <g
     inkscape:groupmode="layer"
     id="layer5"
     inkscape:label="Skegs"
     style="opacity:1"
     transform="translate(65.437718,-68.831338)">
    <path
       style="opacity:1;fill:#1e1e1e;fill-opacity:1;stroke:#000000;stroke-width:1.06500006;stroke-miterlimit:4;stroke-dasharray:none;stroke-opacity:1"
       d="m -40.537945,251.73735 191.350435,-1.22842 -0.0821,4.17836 -58.054631,8.48384 -133.347289,1.06908 z"
       id="rect869"
       inkscape:connector-curvature="0"
       sodipodi:nodetypes="cccccc" />
  </g>
  <g
     inkscape:groupmode="layer"
     id="layer6"
     inkscape:label="Jet Drive"
     style="opacity:1"
     transform="translate(65.437718,-68.831338)">
    <path
       style="opacity:1;fill:#959baf;fill-opacity:1;stroke:#000000;stroke-width:1.06500006;stroke-miterlimit:4;stroke-dasharray:none;stroke-opacity:1"
       d="m -42.562672,234.62597 c 3e-6,1.07016 0.803881,11.79327 -0.100226,11.79327 -0.221534,0 -2.324187,-0.94175 -3.862697,-0.82002 0,0 0.667032,4.90204 -0.806351,4.8961 -1.348191,-0.005 -5.350766,0.0309 -5.350766,0.0309 0.218842,-2.66585 -0.303472,-6.70058 -0.303471,-7.04691 2e-6,-1.07016 4.808783,-13.02939 5.712886,-13.02939 0.904103,0 4.710624,3.10592 4.710625,4.17609 z"
       id="path876"
       inkscape:connector-curvature="0"
       sodipodi:nodetypes="ssssssss" />
    <path
       style="opacity:1;fill:#959baf;fill-opacity:1;stroke:#000000;stroke-width:1.06500006;stroke-miterlimit:4;stroke-dasharray:none;stroke-opacity:1"
       d="m -45.073658,234.30319 c -0.07733,1.24887 -9.040349,7.54322 -10.804618,15.08724 -0.649947,2.77917 -6.922624,-2.89949 -2.744728,-6.90089 2.072937,-1.98536 -0.119051,-2.84259 -0.119052,-5.11275 10e-7,-2.27016 5.600906,-7.18409 8.471225,-7.18409 2.870319,0 5.337476,1.84467 5.197173,4.11049 z"
       id="path873"
       inkscape:connector-curvature="0"
       sodipodi:nodetypes="ssssss" />
    <path
       style="opacity:1;fill:#d23638;fill-opacity:1;stroke:#000000;stroke-width:1.06500006;stroke-miterlimit:4;stroke-dasharray:none;stroke-opacity:1"
       d="m -47.199778,214.31772 h 5.102679 v 8.26823 l -3.968745,-3.07107 -0.195099,-1.31283 -3.489729,0.7957 -2.298215,2.29462 -8.726953,12.11177 0.0427,10.77951 0.830954,3.04078 2.400027,2.83841 11.322584,0.0549 2.965968,-3.49652 1.423613,-0.19494 0.06555,7.98008 -13.129351,0.0713 -5.067865,-1.49975 -3.578562,-3.62874 -1.329208,-4.97881 -0.07505,-9.61478 1.698916,-4.63908 8.540755,-12.06629 2.979564,-2.71007 z"
       id="rect879"
       inkscape:connector-curvature="0"
       sodipodi:nodetypes="cccccccccccccccccccccccc" />
  </g>
  <g
     inkscape:groupmode="layer"
     id="layer2"
     inkscape:label="Hull"
     style="display:inline;opacity:1"
     transform="translate(65.437718,-68.831338)">
    <path
       style="opacity:1;fill:#fff555;fill-opacity:1;stroke:#000000;stroke-width:1.06500006;stroke-miterlimit:4;stroke-dasharray:none;stroke-opacity:1"
       d="m 266.31918,200.73626 c -0.29612,1.48282 -5.9279,12.0386 -13.15128,21.50025 -5.02141,6.57736 -9.51315,14.77611 -19.5151,17.70761 -17.1258,5.01946 -42.83762,9.49141 -64.18539,10.93698 -62.76141,4.24992 -132.675233,3.2232 -146.859416,3.2232 -15.6654057,0 -64.332438,0.30208 -64.332438,0.30208 -0.170965,-10.31963 -0.677954,-26.45031 -0.596014,-30.2356 0.334089,-15.43356 -1.564804,-12.5515 3.893685,-21.18079 2.939307,-4.64673 2.964422,-4.03005 19.99493,-6.64308 37.860658,-5.80905 100.777596,-13.8269 117.20204,-13.8269 19.994243,0 109.434803,-4.46222 150.336333,0.86496 5.29282,0.68936 10.91894,-0.10877 14.45342,4.83997 4.56519,6.39189 3.79866,7.30635 2.75923,12.51132 z"
       id="path827"
       inkscape:connector-curvature="0"
       sodipodi:nodetypes="sssssssssssss" />
  </g>
  <g
     inkscape:groupmode="layer"
     id="layer4"
     inkscape:label="Bumpers"
     style="opacity:1"
     transform="translate(65.437718,-68.831338)">
    <path
       style="opacity:1;fill:#2c2c2c;fill-opacity:1;stroke:#000000;stroke-width:1.06500006;stroke-miterlimit:4;stroke-dasharray:none;stroke-opacity:1"
       d="m 266.70947,196.15122 2.59858,-0.16536 -2.39789,8.91567 -3.08276,6.60498 -1.91351,-0.87407 2.83065,-5.7182 z"
       id="rect853"
       inkscape:connector-curvature="0"
       sodipodi:nodetypes="ccccccc" />
    <path
       style="opacity:1;fill:#2c2c2c;fill-opacity:1;stroke:#000000;stroke-width:1.06500006;stroke-miterlimit:4;stroke-dasharray:none;stroke-opacity:1"
       d="m 223.79287,193.02608 4.96233,0.23387 -7.14946,11.66943 -4.96233,0.46772 z"
       id="rect856"
       inkscape:connector-curvature="0"
       sodipodi:nodetypes="ccccc" />
    <path
       style="opacity:1;fill:#2c2c2c;fill-opacity:1;stroke:#000000;stroke-width:1.06500006;stroke-miterlimit:4;stroke-dasharray:none;stroke-opacity:1"
       d="m 152.27681,192.19693 5.27857,-0.16704 -11.99372,20.91384 -5.7797,0.96885 z"
       id="rect859"
       inkscape:connector-curvature="0"
       sodipodi:nodetypes="ccccc" />
    <path
       style="opacity:1;fill:#2c2c2c;fill-opacity:1;stroke:#000000;stroke-width:1.06500006;stroke-miterlimit:4;stroke-dasharray:none;stroke-opacity:1"
       d="m 77.390625,196.88356 6.236607,-0.56697 -11.717262,19.93825 -5.291666,0.18899 z"
       id="rect862"
       inkscape:connector-curvature="0"
       sodipodi:nodetypes="ccccc" />
    <path
       style="opacity:1;fill:#2c2c2c;fill-opacity:1;stroke:#000000;stroke-width:1.06500006;stroke-miterlimit:4;stroke-dasharray:none;stroke-opacity:1"
       d="M 0.51971709,206.75819 6.4728422,205.52977 0.23623504,216.25484 -4.6302085,216.1131 Z"
       id="rect865"
       inkscape:connector-curvature="0"
       sodipodi:nodetypes="ccccc" />
    <path
       style="opacity:1;fill:#2c2c2c;fill-opacity:1;stroke:#000000;stroke-width:1.06500006;stroke-miterlimit:4;stroke-dasharray:none;stroke-opacity:1"
       d="m -38.653855,215.9171 138.914365,-0.89984 62.94411,-3.38501 33.43692,-3.59588 58.12977,-11.41311 9.34379,1.80736 -56.72053,11.91452 -44.20181,5.51436 -82.533863,4.20717 -119.279344,0.0933 z"
       id="rect847"
       inkscape:connector-curvature="0"
       sodipodi:nodetypes="ccccccccccc" />
    <path
       style="opacity:1;fill:#2c2c2c;fill-opacity:1;stroke:#000000;stroke-width:1.06500006;stroke-miterlimit:4;stroke-dasharray:none;stroke-opacity:1"
       d="m -38.626031,208.82222 87.228748,-12.48594 46.463441,-5.41009 31.750342,-1.74437 42.9846,-1.71958 34.82624,0.69534 31.8415,1.46326 30.23562,4.98078 -0.93544,4.13006 -30.19793,-4.48592 -31.27291,-1.59204 -34.44195,-0.27187 -42.72066,1.34301 -31.858633,2.3236 -38.514115,3.38742 -77.055372,11.15537 -18.264103,3.31884 z"
       id="rect850"
       inkscape:connector-curvature="0"
       sodipodi:nodetypes="cccccccccccccccccc" />
  </g>
</svg>
