<?xml version="1.0" encoding="UTF-8" standalone="no"?>
<!-- Created with Inkscape (http://www.inkscape.org/) -->

<svg
   xmlns:dc="http://purl.org/dc/elements/1.1/"
   xmlns:cc="http://creativecommons.org/ns#"
   xmlns:rdf="http://www.w3.org/1999/02/22-rdf-syntax-ns#"
   xmlns:svg="http://www.w3.org/2000/svg"
   xmlns="http://www.w3.org/2000/svg"
   xmlns:sodipodi="http://sodipodi.sourceforge.net/DTD/sodipodi-0.dtd"
   xmlns:inkscape="http://www.inkscape.org/namespaces/inkscape"
   width="5.2029757in"
   height="2.8828692in"
   viewBox="0 0 132.15558 73.224879"
   version="1.1"
   id="svg8"
   inkscape:version="0.92.5 (2060ec1f9f, 2020-04-08)"
   sodipodi:docname="drix.svg"
   inkscape:export-filename="/home/roland/Documents/Drawings/drix.png"
   inkscape:export-xdpi="96"
   inkscape:export-ydpi="96">
  <defs
     id="defs2" />
  <sodipodi:namedview
     id="base"
     pagecolor="#ffffff"
     bordercolor="#666666"
     borderopacity="1.0"
     inkscape:pageopacity="0.0"
     inkscape:pageshadow="2"
     inkscape:zoom="1.6658951"
     inkscape:cx="234.61401"
     inkscape:cy="187.24312"
     inkscape:document-units="mm"
     inkscape:current-layer="layer5"
     showgrid="false"
     units="in"
     inkscape:window-width="1629"
     inkscape:window-height="1152"
     inkscape:window-x="933"
     inkscape:window-y="171"
     inkscape:window-maximized="0" />
  <metadata
     id="metadata5">
    <rdf:RDF>
      <cc:Work
         rdf:about="">
        <dc:format>image/svg+xml</dc:format>
        <dc:type
           rdf:resource="http://purl.org/dc/dcmitype/StillImage" />
        <dc:title></dc:title>
      </cc:Work>
    </rdf:RDF>
  </metadata>
  <g
     inkscape:groupmode="layer"
     id="layer4"
     inkscape:label="Gondola"
     style="display:inline"
     transform="translate(-39.837161,-9.7941791)">
    <rect
       style="fill:#000000;fill-opacity:1;stroke:#000000;stroke-width:0.26458332;stroke-opacity:1"
       id="rect4539"
       width="8.289382"
       height="20.647057"
       x="108.63529"
       y="57.494118" />
    <path
       style="fill:#000000;fill-opacity:1;stroke:#000000;stroke-width:0.26458332;stroke-opacity:1"
       d="m 128.01176,79.411767 c 0,1.973605 -2.43085,3.187139 -15.88235,3.434559 -8.07279,0.148487 -13.134311,-0.132661 -15.326474,-0.53603 -0.985532,-0.181343 -2.984901,-0.395823 -3.111926,-1.468912 -0.131528,-1.111139 0.306108,-1.557774 1.44285,-1.772127 5.5922,-1.054505 9.43046,-1.803773 17.39261,-2.039843 7.89095,-0.233959 15.48529,0.408748 15.48529,2.382353 z"
       id="path4541"
       inkscape:connector-curvature="0"
       sodipodi:nodetypes="sssssss" />
  </g>
  <g
     inkscape:groupmode="layer"
     id="layer5"
     inkscape:label="Rudder and Prop"
     style="display:inline"
     transform="translate(-39.837161,-9.7941791)">
    <path
       style="fill:#000000;fill-opacity:1;stroke:#000000;stroke-width:0.26458332;stroke-opacity:1"
       d="m 42.644116,55.588234 4.566177,0.03971 -0.119118,10.919118 -2.819118,-0.03971 -1.677938,-7.36931 z"
       id="rect4545"
       inkscape:connector-curvature="0"
       sodipodi:nodetypes="cccccc" />
    <path
       style="fill:#000000;fill-opacity:1;stroke:#000000;stroke-width:0.26458332;stroke-opacity:1"
       d="m 52.121236,60.843623 c 0.37903,1.664859 0.530463,3.377227 0.0057,3.384019 -0.52476,0.0068 -0.916971,-2.247264 -1.097211,-2.916948 -0.122189,-0.453994 -0.594324,-2.931668 -0.0696,-2.952043 0.524724,-0.02038 0.773442,0.806298 1.161108,2.484972 l -0.36321,0.175673 z"
       id="path4548"
       inkscape:connector-curvature="0"
       sodipodi:nodetypes="csssccc" />
    <rect
       style="fill:#000000;fill-opacity:1;stroke:#000000;stroke-width:0.27793771;stroke-opacity:1"
       id="rect4551"
       width="21.570301"
       height="0.42230207"
       x="42.168877"
       y="68.758286"
       transform="matrix(0.98572459,-0.16836579,0.15349914,0.98814878,0,0)"
       inkscape:transform-center-x="-0.69028524"
       inkscape:transform-center-y="1.115969" />
  </g>
  <g
     inkscape:groupmode="layer"
     id="layer6"
     inkscape:label="Mast"
     transform="translate(-39.837161,-9.7941791)">
    <path
       style="fill:#ff0000;fill-opacity:1;stroke:#000000;stroke-width:0.26458332;stroke-opacity:1"
       d="M 106.72941,9.9264708 H 121.5 l -0.31765,30.6529402 -15.64411,0.07941 z"
       id="rect4554"
       inkscape:connector-curvature="0"
       sodipodi:nodetypes="ccccc" />
    <rect
       style="fill:#ff0000;fill-opacity:1;stroke:#000000;stroke-width:0.26458332;stroke-opacity:1"
       id="rect4556"
       width="20.964706"
       height="1.9058824"
       x="103.63235"
       y="13.341176" />
  </g>
  <g
     inkscape:groupmode="layer"
     id="layer2"
     inkscape:label="Hull"
     style="display:inline;opacity:1"
     transform="translate(-39.837161,-9.7941791)">
    <path
       style="fill:#ff0000;fill-opacity:1;stroke:#000000;stroke-width:0.26458332;stroke-opacity:1"
       d="m 170.60228,52.50361 c 0.32729,1.210685 1.7041,4.108651 0.88822,4.260304 -6.32193,1.175108 -35.30498,1.138325 -59.24146,1.138327 -27.69392,2e-6 -64.238894,-0.179061 -71.482263,-2.133799 -1.212256,-0.327147 -0.683713,0.0093 -0.676101,-4.820882 0.0059,-3.728747 -0.408968,-4.234317 0.684591,-4.707758 6.669,-2.887248 20.072556,-5.446609 34.750577,-6.466211 12.457215,-0.865335 25.879536,0.04751 36.386276,0.04751 13.94332,1e-6 25.98703,0.220688 37.00461,2.4143 10.90471,2.171139 16.6108,2.021759 20.89143,8.977765 z"
       id="path3724"
       inkscape:connector-curvature="0"
       inkscape:transform-center-x="-21.337987"
       inkscape:transform-center-y="10.556688"
       sodipodi:nodetypes="csssssssssc" />
  </g>
  <g
     inkscape:groupmode="layer"
     id="layer3"
     inkscape:label="Hull Black"
     style="display:inline"
     transform="translate(-39.837161,-9.7941791)">
    <path
       style="fill:#000000;fill-opacity:1;stroke:#000000;stroke-width:0.26458332;stroke-opacity:1"
       d="m 171.77432,56.514258 c -1.30553,1.510883 -45.25726,1.608888 -58.43746,1.608887 -8.05196,-10e-7 -38.516476,-0.367663 -60.081611,-1.108204 -5.046171,-0.173284 -11.123749,-0.178935 -13.049533,-1.403849 -0.35778,-0.22757 -0.146679,-3.051046 -0.146679,-3.051046 9.390844,-0.752163 59.479536,0.04913 72.659733,0.04913 10.4006,-10e-7 44.89734,-0.578824 57.35297,-0.73965 0.4588,-0.0059 2.19158,4.078826 1.70258,4.644734 z"
       id="path4535"
       inkscape:connector-curvature="0"
       sodipodi:nodetypes="csssssssc" />
  </g>
</svg>
